<?xml version="1.0" encoding="UTF-8" standalone="no"?>
<svg width="800px" height="190px" viewBox="0 0 800 190" version="1.1" xmlns="http://www.w3.org/2000/svg" xmlns:xlink="http://www.w3.org/1999/xlink">
    <!-- Generator: Sketch 42 (36781) - http://www.bohemiancoding.com/sketch -->
    <title>logo-wordmark</title>
    <desc>Created with Sketch.</desc>
    <defs></defs>
    <g id="Buttons" stroke="none" stroke-width="1" fill="none" fill-rule="evenodd">
        <g id="logo" transform="translate(-112.000000, -71.000000)">
            <g id="logo-wordmark" transform="translate(112.000000, 71.000000)">
                <path
                        d="M401.919072,71.0830626 C401.857819,72.2320186 401.727889,73.4032483 401.542274,74.5614849 C401.481021,74.9475638 401.412343,75.3317865 401.339954,75.7141531 C401.206311,76.4064965 401.052251,77.087703 400.887053,77.7559165 C400.684733,78.5670534 400.465708,79.3596288 400.226265,80.1150812 C400.048074,80.6756381 399.860603,81.2139211 399.667564,81.7336427 C399.574756,81.9786543 399.483805,82.2180974 399.389142,82.4519722 C398.828585,83.8477958 398.230905,85.0412993 397.64065,85.9044084 C395.064316,89.6835267 391.409559,92.6923434 387.259211,94.5967517 C385.111647,95.5823666 379.186821,96.5921114 375.275916,95.8329466 C375.097726,95.7976798 374.902831,95.7809745 374.733921,95.7382831 C374.730209,95.7382831 374.759907,95.4988399 374.79703,95.1925754 C374.82116,95.0051044 374.847146,94.7990719 374.871276,94.5967517 C374.882413,94.5095128 374.89355,94.4204176 374.902831,94.3406032 C375.331601,90.8993039 375.842042,87.775406 376.629049,84.2672854 C376.753411,83.7067285 376.868492,83.162877 377.009559,82.5781903 C377.265708,81.5220418 377.553411,80.4046404 377.870812,79.2686775 C378.750626,76.1280742 379.87174,72.8259861 381.282413,70.1791183 C382.977077,67.0013921 385.252715,63.2445476 388.460139,61.0542923 C388.751555,60.8538283 389.050394,60.6682135 389.356659,60.4974478 C390.585429,59.8106729 391.942274,59.3559165 393.440186,59.2389791 C393.846682,59.2074246 394.234617,59.1981439 394.607703,59.2092807 C396.656891,59.2742459 398.19007,59.9851508 399.318608,61.1229698 C400.241114,62.0529002 400.896334,63.2686775 401.31768,64.6812065 C401.412343,64.9948956 401.494014,65.3178654 401.566404,65.650116 C401.852251,66.975406 401.971044,68.4306265 401.954339,69.9415313 C401.950626,70.3183295 401.937633,70.6988399 401.919072,71.0830626 M560.859211,53.2324826 C560.859211,53.2324826 560.352483,53.2009281 559.465244,53.2009281 C552.81652,53.2009281 530.819304,54.9364269 526.815592,77.2696056 C525.226729,86.1160093 530.542738,94.1587007 538.366404,99.625058 C542.086125,102.223666 546.256891,104.200464 549.874524,105.852436 L550.668956,106.212529 C553.878237,107.665893 557.195174,109.17123 560.101903,111.290951 C562.61884,113.128538 565.859675,116.241299 566.986357,120.629234 C568.547378,126.78051 562.448074,133.716937 549.479165,133.973086 C532.044362,134.316473 539.073596,115.112761 531.637865,109.310441 C529.894942,107.95174 528.055499,107.489559 526.063852,107.489559 C521.590534,107.489559 516.762691,110.444548 514.834153,114.366589 C513.893086,116.280278 513.594246,118.593039 513.881949,121.019026 C512.664316,123.044084 511.307471,124.965197 509.464316,126.422274 C508.69587,127.03109 507.784501,127.576798 506.806311,127.509977 C505.54413,127.424594 504.543666,126.301624 504.205847,125.083991 C503.868028,123.864501 504.053643,122.567053 504.280093,121.323434 C507.307471,104.62181 516.955731,88.7535963 514.969652,71.8941995 C514.49819,67.8886311 513.321392,63.8793503 510.932529,60.6292343 C507.04761,55.3410673 500.209559,52.649652 493.657355,52.987471 C487.105151,53.32529 480.892622,56.4269142 475.999814,60.7981439 C471.107007,65.1712297 468.461995,68.9930394 465.460603,74.8287703 C465.326961,70.3535963 464.625336,67.6733179 462.752483,63.3187935 C460.983573,59.2074246 456.126032,55.4357309 451.344594,54.0937355 C448.2671,53.2306265 443.543202,52.9262181 440.434153,53.6649652 C433.789142,55.2445476 428.137169,59.437587 423.921856,64.7183295 C423.450394,63.8812065 422.928817,63.0774942 422.316288,62.3350348 C421.831833,61.7484919 421.308399,61.1897912 420.753411,60.6570766 C420.202135,60.1262181 419.62116,59.6213457 419.019768,59.1387471 C418.674524,58.8640371 418.307007,58.6227378 417.945058,58.3684455 C416.515824,57.3698376 414.971508,56.52529 413.319536,55.8589327 C412.630905,55.5823666 411.923712,55.3336427 411.203527,55.1090487 C402.568724,52.4232019 391.984965,53.4941995 384.083341,55.8236659 C380.404455,56.9076566 376.829513,58.3535963 373.462459,60.1781903 C369.566404,62.2904872 365.954339,64.9132251 362.787749,67.9944316 C361.881949,68.8779582 361.013271,69.7986079 360.185429,70.7489559 C358.145522,73.0895592 356.371044,75.6417633 354.817448,78.3220418 C354.44065,78.9735499 354.047146,79.6139211 353.69819,80.2802784 C351.52464,84.4529002 349.928353,88.8965197 348.807239,93.4533643 C348.432297,94.9735499 348.111183,96.5048724 347.838329,98.0436195 C347.834617,98.0566125 347.834617,98.0696056 347.830905,98.0807425 C347.712111,98.761949 347.613735,99.4394432 347.530209,100.116937 C347.502367,100.356381 347.483805,100.592111 347.461531,100.831555 C347.415128,101.282599 347.37058,101.731787 347.340882,102.179118 C347.320464,102.464965 347.313039,102.750812 347.300046,103.034803 C347.283341,103.433875 347.268492,103.83109 347.26478,104.22645 C347.261067,104.536427 347.26478,104.844548 347.270348,105.152668 C347.275916,105.520186 347.285197,105.883991 347.300046,106.247796 C347.316752,106.574478 347.335313,106.899304 347.357587,107.22413 C347.381717,107.563805 347.413271,107.90348 347.446682,108.243155 C347.481949,108.582831 347.517216,108.922506 347.561763,109.260325 C347.602599,109.572158 347.650858,109.880278 347.699118,110.190255 C347.754803,110.548492 347.810487,110.906729 347.877309,111.261253 C347.927425,111.528538 347.986821,111.790255 348.044362,112.051972 C348.127889,112.447332 348.207703,112.842691 348.304223,113.232483 C348.319072,113.290023 348.335777,113.345708 348.350626,113.401392 C348.770116,115.060789 349.315824,116.681206 349.9729,118.260789 C350.024872,118.385151 350.073132,118.511369 350.126961,118.635731 C350.201206,118.810209 350.286589,118.982831 350.366404,119.155452 C347.101439,123.322506 342.462923,127.743852 337.000278,127.355916 C335.908863,127.277958 334.806311,126.964269 333.956195,126.277494 C332.69587,125.260325 332.165012,123.565661 332.103759,121.9471 C332.005383,119.398608 332.580789,116.77587 333.1729,114.310905 C333.321392,113.690951 333.501439,112.935499 333.711183,112.044548 C337.09123,97.737355 347.303759,53.1935035 347.303759,53.1935035 C346.050858,54.0176334 344.797958,54.6914153 343.578469,55.2445476 C336.916752,58.2700696 329.19703,58.3535963 322.477773,55.4598608 C319.804919,54.3090487 318.804455,53.1972158 318.804455,53.1972158 C310.982645,91.6139211 302.444362,112.662645 302.444362,112.662645 C297.408631,124.276566 291.699118,129.976798 286.323712,129.76891 C286.255035,129.759629 286.184501,129.750348 286.113968,129.742923 C280.022088,128.92993 280.805383,119.786543 282.073132,113.117401 C282.468492,111.316937 282.912111,109.293735 283.385429,107.135035 C285.831833,96.137355 292.124176,68.1410673 292.159443,67.9832947 C292.376613,67.0459397 292.508399,66.4742459 292.515824,66.4464037 C294.04529,59.6176334 289.750162,52.8426914 282.923248,51.3132251 C276.094478,49.7819026 269.319536,54.0770302 267.79007,60.9058005 C267.777077,60.9577726 263.361299,80.2264501 263.352019,80.4918794 L255.51536,115.476566 C254.771044,116.603248 253.93949,117.793039 253.466172,118.195824 C252.023944,119.432019 244.950162,126.372158 239.487517,127.780974 C238.758051,127.968445 238.002599,128.219026 237.308399,127.92761 C234.27174,126.65058 234.925104,120.677494 235.231369,119.006961 L261.713039,0.462180974 C261.713039,0.462180974 245.735313,9.59257541 232.042506,0.462180974 L216.525104,68.6607889 L208.939026,100.291415 C199.75109,141.080278 224.480557,140.131787 224.480557,140.131787 C230.756195,140.345244 235.519072,137.776334 239.958979,134.954988 C246.468492,130.817633 252.150162,125.997216 255.821624,122.632019 C258.928817,141.57587 275.429977,140.183759 275.429977,140.183759 C296.784965,140.233875 306.061995,116.430626 306.061995,116.430626 C306.706079,141.538747 321.052251,139.819954 321.052251,139.819954 C336.918608,139.857077 347.829049,129.728074 352.870348,123.775406 C353.14877,124.206032 353.430905,124.632947 353.727889,125.052436 C353.785429,125.134107 353.846682,125.215777 353.906079,125.297448 C354.988213,126.799072 356.181717,128.239443 357.514432,129.588863 C359.509791,131.612065 361.726032,133.332715 364.100046,134.793503 L364.100046,134.79536 L364.101903,134.797216 C364.664316,135.142459 365.230441,135.480278 365.813271,135.793968 C366.52232,136.187471 367.244362,136.560557 367.986821,136.89652 L368.009095,136.907657 C368.51768,137.135963 369.037401,137.336427 369.558979,137.535035 C371.719536,138.361021 373.967332,138.94942 376.248538,139.341067 C376.99471,139.470998 377.737169,139.556381 378.479629,139.656613 C380.101903,139.87935 381.727889,140.04826 383.368724,140.131787 C383.593318,140.14478 383.816056,140.172622 384.04065,140.181903 C383.99239,140.183759 383.942274,140.183759 383.89587,140.183759 L384.051787,140.183759 C384.051787,140.183759 384.046218,140.181903 384.042506,140.181903 L384.075916,140.181903 L384.129745,140.181903 C385.930209,140.15406 387.726961,140.020418 389.516288,139.810673 C390.050858,139.747564 390.587285,139.710441 391.118144,139.626914 C391.708399,139.534107 392.293086,139.417169 392.879629,139.302088 C393.534849,139.174014 394.186357,139.029234 394.836009,138.871462 C396.885197,138.377726 398.904687,137.761485 400.86478,136.989327 C402.355267,136.400928 403.79935,135.704872 405.213735,134.958701 C407.53949,133.728074 409.766868,132.313689 411.829049,130.678422 C414.876845,128.259861 417.575684,125.429234 419.899582,122.314617 C420.673596,121.27703 421.406775,120.207889 422.097262,119.110905 C422.581717,118.392575 423.147842,117.106265 423.049466,115.834803 C422.99007,115.071926 422.69123,114.314617 421.991462,113.687239 C421.820696,113.477494 421.1729,112.788863 420.055499,112.788863 C419.54877,112.788863 419.017912,112.955916 418.44993,113.278886 C418.110255,113.471926 417.757587,113.709513 417.378933,114.041763 C416.976148,114.548492 407.378005,126.073318 393.217448,126.435267 L393.215592,126.435267 C392.560371,126.435267 391.903295,126.396288 391.246218,126.346172 C388.777541,126.07703 385.711183,125.150812 382.878701,122.82877 C379.229513,119.639907 375.103295,113.39768 374.61884,101.356845 L374.605847,100.863109 C374.665244,100.863109 381.35109,100.811137 391.203527,100.011137 C392.521392,99.9034803 393.820696,99.6863109 395.112575,99.4227378 C397.249002,98.9865429 399.352019,98.3814385 401.39935,97.6408353 C412.62348,93.5851508 425.906079,85.5480278 425.833689,72.0835267 C425.833689,71.849652 425.816984,71.6157773 425.803991,71.3800464 C426.956659,69.8765661 428.200278,68.4436195 429.609095,67.1777262 C430.423944,66.4445476 431.400278,65.8951276 432.49355,65.8023202 C436.829513,65.4348028 438.86942,68.9336427 438.655963,71.1183295 C438.234617,75.4060325 437.260139,79.6194896 436.285661,83.8162413 C431.951555,102.498376 427.617448,121.178654 423.283341,139.860789 C432.788677,139.871926 442.294014,139.87935 451.801206,139.890487 C456.196566,119.70116 460.630905,99.387471 468.502831,80.2839907 C470.683805,74.9939675 473.252715,69.6352668 477.623944,65.9433875 C480.159443,63.799536 484.003527,62.3387471 486.709791,64.2654292 C489.217448,66.0491879 489.345522,69.6835267 489.016984,72.7443155 C487.62116,85.774478 482.54645,98.1234339 480.100046,110.99768 C479.26478,115.396752 478.737633,119.914617 479.381717,124.343387 C480.027657,128.774014 481.945058,133.139675 485.34181,136.055684 C491.231369,141.109977 500.473132,140.666357 507.118144,136.658933 C510.487053,134.628306 513.393782,131.118329 515.942274,127.274246 C521.642506,137.761485 535.246218,139.29652 547.637865,139.871926 C547.64529,139.873782 548.036937,139.890487 548.731137,139.890487 C554.470348,139.890487 581.902367,140.295128 583.639722,114.587471 C583.962691,109.813457 583.19239,105.299304 581.150626,101.154524 C579.004919,96.7944316 575.493086,93.0078886 570.707935,89.8969838 C567.866172,88.050116 564.645754,86.6078886 561.532993,85.212065 C556.356195,82.8937355 551.003063,80.4955916 547.068028,76.1299304 C545.514432,74.4055684 544.423016,72.5939675 543.825336,70.7470998 C543.595174,70.0361949 543.470812,69.3178654 543.390998,68.6032483 C543.398422,67.1981439 544.053643,59.0607889 558.087981,58.4649652 C564.178005,58.2051044 567.073596,58.9457077 568.966868,60.6923434 C569.354803,61.0672854 569.705615,61.4719258 570.02116,61.8969838 C570.086125,61.9842227 570.15109,62.0696056 570.212343,62.1587007 C570.353411,62.362877 570.492622,62.5707657 570.61884,62.787935 C572.083341,65.3215777 571.472668,67.8682135 571.327889,70.3183295 C571.171972,72.8686775 571.0142,75.5025522 572.643898,78.2700696 C572.74413,78.437123 574.459211,82.7118329 580.259675,82.7118329 C580.966868,82.7118329 581.700046,82.6524362 582.457355,82.5317865 C582.878701,82.4761021 592.777541,81.0654292 591.905151,72.0890951 C591.899582,71.912761 590.819304,54.2143852 560.859211,53.2324826" id="Fill-1" fill="#000000"></path>
                <path
                        d="M401.919072,71.0830626 C401.857819,72.2320186 401.727889,73.4032483 401.542274,74.5614849 C401.481021,74.9475638 401.412343,75.3317865 401.339954,75.7141531 C401.206311,76.4064965 401.052251,77.087703 400.887053,77.7559165 C400.684733,78.5670534 400.465708,79.3596288 400.226265,80.1150812 C400.048074,80.6756381 399.860603,81.2139211 399.667564,81.7336427 C399.574756,81.9786543 399.483805,82.2180974 399.389142,82.4519722 C398.828585,83.8477958 398.230905,85.0412993 397.64065,85.9044084 C395.064316,89.6835267 391.409559,92.6923434 387.259211,94.5967517 C385.111647,95.5823666 379.186821,96.5921114 375.275916,95.8329466 C375.097726,95.7976798 374.902831,95.7809745 374.733921,95.7382831 C374.730209,95.7382831 374.759907,95.4988399 374.79703,95.1925754 C374.82116,95.0051044 374.847146,94.7990719 374.871276,94.5967517 C374.882413,94.5095128 374.89355,94.4204176 374.902831,94.3406032 C375.331601,90.8993039 375.842042,87.775406 376.629049,84.2672854 C376.753411,83.7067285 376.868492,83.162877 377.009559,82.5781903 C377.265708,81.5220418 377.553411,80.4046404 377.870812,79.2686775 C378.750626,76.1280742 379.87174,72.8259861 381.282413,70.1791183 C382.977077,67.0013921 385.252715,63.2445476 388.460139,61.0542923 C388.751555,60.8538283 389.050394,60.6682135 389.356659,60.4974478 C390.585429,59.8106729 391.942274,59.3559165 393.440186,59.2389791 C393.846682,59.2074246 394.234617,59.1981439 394.607703,59.2092807 C396.656891,59.2742459 398.19007,59.9851508 399.318608,61.1229698 C400.241114,62.0529002 400.896334,63.2686775 401.31768,64.6812065 C401.412343,64.9948956 401.494014,65.3178654 401.566404,65.650116 C401.852251,66.975406 401.971044,68.4306265 401.954339,69.9415313 C401.950626,70.3183295 401.937633,70.6988399 401.919072,71.0830626 Z M560.859211,53.2324826 C560.859211,53.2324826 560.352483,53.2009281 559.465244,53.2009281 C552.81652,53.2009281 530.819304,54.9364269 526.815592,77.2696056 C525.226729,86.1160093 530.542738,94.1587007 538.366404,99.625058 C542.086125,102.223666 546.256891,104.200464 549.874524,105.852436 L550.668956,106.212529 C553.878237,107.665893 557.195174,109.17123 560.101903,111.290951 C562.61884,113.128538 565.859675,116.241299 566.986357,120.629234 C568.547378,126.78051 562.448074,133.716937 549.479165,133.973086 C532.044362,134.316473 539.073596,115.112761 531.637865,109.310441 C529.894942,107.95174 528.055499,107.489559 526.063852,107.489559 C521.590534,107.489559 516.762691,110.444548 514.834153,114.366589 C513.893086,116.280278 513.594246,118.593039 513.881949,121.019026 C512.664316,123.044084 511.307471,124.965197 509.464316,126.422274 C508.69587,127.03109 507.784501,127.576798 506.806311,127.509977 C505.54413,127.424594 504.543666,126.301624 504.205847,125.083991 C503.868028,123.864501 504.053643,122.567053 504.280093,121.323434 C507.307471,104.62181 516.955731,88.7535963 514.969652,71.8941995 C514.49819,67.8886311 513.321392,63.8793503 510.932529,60.6292343 C507.04761,55.3410673 500.209559,52.649652 493.657355,52.987471 C487.105151,53.32529 480.892622,56.4269142 475.999814,60.7981439 C471.107007,65.1712297 468.461995,68.9930394 465.460603,74.8287703 C465.326961,70.3535963 464.625336,67.6733179 462.752483,63.3187935 C460.983573,59.2074246 456.126032,55.4357309 451.344594,54.0937355 C448.2671,53.2306265 443.543202,52.9262181 440.434153,53.6649652 C433.789142,55.2445476 428.137169,59.437587 423.921856,64.7183295 C423.450394,63.8812065 422.928817,63.0774942 422.316288,62.3350348 C421.831833,61.7484919 421.308399,61.1897912 420.753411,60.6570766 C420.202135,60.1262181 419.62116,59.6213457 419.019768,59.1387471 C418.674524,58.8640371 418.307007,58.6227378 417.945058,58.3684455 C416.515824,57.3698376 414.971508,56.52529 413.319536,55.8589327 C412.630905,55.5823666 411.923712,55.3336427 411.203527,55.1090487 C402.568724,52.4232019 391.984965,53.4941995 384.083341,55.8236659 C380.404455,56.9076566 376.829513,58.3535963 373.462459,60.1781903 C369.566404,62.2904872 365.954339,64.9132251 362.787749,67.9944316 C361.881949,68.8779582 361.013271,69.7986079 360.185429,70.7489559 C358.145522,73.0895592 356.371044,75.6417633 354.817448,78.3220418 C354.44065,78.9735499 354.047146,79.6139211 353.69819,80.2802784 C351.52464,84.4529002 349.928353,88.8965197 348.807239,93.4533643 C348.432297,94.9735499 348.111183,96.5048724 347.838329,98.0436195 C347.834617,98.0566125 347.834617,98.0696056 347.830905,98.0807425 C347.712111,98.761949 347.613735,99.4394432 347.530209,100.116937 C347.502367,100.356381 347.483805,100.592111 347.461531,100.831555 C347.415128,101.282599 347.37058,101.731787 347.340882,102.179118 C347.320464,102.464965 347.313039,102.750812 347.300046,103.034803 C347.283341,103.433875 347.268492,103.83109 347.26478,104.22645 C347.261067,104.536427 347.26478,104.844548 347.270348,105.152668 C347.275916,105.520186 347.285197,105.883991 347.300046,106.247796 C347.316752,106.574478 347.335313,106.899304 347.357587,107.22413 C347.381717,107.563805 347.413271,107.90348 347.446682,108.243155 C347.481949,108.582831 347.517216,108.922506 347.561763,109.260325 C347.602599,109.572158 347.650858,109.880278 347.699118,110.190255 C347.754803,110.548492 347.810487,110.906729 347.877309,111.261253 C347.927425,111.528538 347.986821,111.790255 348.044362,112.051972 C348.127889,112.447332 348.207703,112.842691 348.304223,113.232483 C348.319072,113.290023 348.335777,113.345708 348.350626,113.401392 C348.770116,115.060789 349.315824,116.681206 349.9729,118.260789 C350.024872,118.385151 350.073132,118.511369 350.126961,118.635731 C350.201206,118.810209 350.286589,118.982831 350.366404,119.155452 C347.101439,123.322506 342.462923,127.743852 337.000278,127.355916 C335.908863,127.277958 334.806311,126.964269 333.956195,126.277494 C332.69587,125.260325 332.165012,123.565661 332.103759,121.9471 C332.005383,119.398608 332.580789,116.77587 333.1729,114.310905 C333.321392,113.690951 333.501439,112.935499 333.711183,112.044548 C337.09123,97.737355 347.303759,53.1935035 347.303759,53.1935035 C346.050858,54.0176334 344.797958,54.6914153 343.578469,55.2445476 C336.916752,58.2700696 329.19703,58.3535963 322.477773,55.4598608 C319.804919,54.3090487 318.804455,53.1972158 318.804455,53.1972158 C310.982645,91.6139211 302.444362,112.662645 302.444362,112.662645 C297.408631,124.276566 291.699118,129.976798 286.323712,129.76891 C286.255035,129.759629 286.184501,129.750348 286.113968,129.742923 C280.022088,128.92993 280.805383,119.786543 282.073132,113.117401 C282.468492,111.316937 282.912111,109.293735 283.385429,107.135035 C285.831833,96.137355 292.124176,68.1410673 292.159443,67.9832947 C292.376613,67.0459397 292.508399,66.4742459 292.515824,66.4464037 C294.04529,59.6176334 289.750162,52.8426914 282.923248,51.3132251 C276.094478,49.7819026 269.319536,54.0770302 267.79007,60.9058005 C267.777077,60.9577726 263.361299,80.2264501 263.352019,80.4918794 L255.51536,115.476566 C254.771044,116.603248 253.93949,117.793039 253.466172,118.195824 C252.023944,119.432019 244.950162,126.372158 239.487517,127.780974 C238.758051,127.968445 238.002599,128.219026 237.308399,127.92761 C234.27174,126.65058 234.925104,120.677494 235.231369,119.006961 L261.713039,0.462180974 C261.713039,0.462180974 245.735313,9.59257541 232.042506,0.462180974 L216.525104,68.6607889 L208.939026,100.291415 C199.75109,141.080278 224.480557,140.131787 224.480557,140.131787 C230.756195,140.345244 235.519072,137.776334 239.958979,134.954988 C246.468492,130.817633 252.150162,125.997216 255.821624,122.632019 C258.928817,141.57587 275.429977,140.183759 275.429977,140.183759 C296.784965,140.233875 306.061995,116.430626 306.061995,116.430626 C306.706079,141.538747 321.052251,139.819954 321.052251,139.819954 C336.918608,139.857077 347.829049,129.728074 352.870348,123.775406 C353.14877,124.206032 353.430905,124.632947 353.727889,125.052436 C353.785429,125.134107 353.846682,125.215777 353.906079,125.297448 C354.988213,126.799072 356.181717,128.239443 357.514432,129.588863 C359.509791,131.612065 361.726032,133.332715 364.100046,134.793503 L364.100046,134.79536 L364.101903,134.797216 C364.664316,135.142459 365.230441,135.480278 365.813271,135.793968 C366.52232,136.187471 367.244362,136.560557 367.986821,136.89652 L368.009095,136.907657 C368.51768,137.135963 369.037401,137.336427 369.558979,137.535035 C371.719536,138.361021 373.967332,138.94942 376.248538,139.341067 C376.99471,139.470998 377.737169,139.556381 378.479629,139.656613 C380.101903,139.87935 381.727889,140.04826 383.368724,140.131787 C383.593318,140.14478 383.816056,140.172622 384.04065,140.181903 C383.99239,140.183759 383.942274,140.183759 383.89587,140.183759 L384.051787,140.183759 C384.051787,140.183759 384.046218,140.181903 384.042506,140.181903 L384.075916,140.181903 L384.129745,140.181903 C385.930209,140.15406 387.726961,140.020418 389.516288,139.810673 C390.050858,139.747564 390.587285,139.710441 391.118144,139.626914 C391.708399,139.534107 392.293086,139.417169 392.879629,139.302088 C393.534849,139.174014 394.186357,139.029234 394.836009,138.871462 C396.885197,138.377726 398.904687,137.761485 400.86478,136.989327 C402.355267,136.400928 403.79935,135.704872 405.213735,134.958701 C407.53949,133.728074 409.766868,132.313689 411.829049,130.678422 C414.876845,128.259861 417.575684,125.429234 419.899582,122.314617 C420.673596,121.27703 421.406775,120.207889 422.097262,119.110905 C422.581717,118.392575 423.147842,117.106265 423.049466,115.834803 C422.99007,115.071926 422.69123,114.314617 421.991462,113.687239 C421.820696,113.477494 421.1729,112.788863 420.055499,112.788863 C419.54877,112.788863 419.017912,112.955916 418.44993,113.278886 C418.110255,113.471926 417.757587,113.709513 417.378933,114.041763 C416.976148,114.548492 407.378005,126.073318 393.217448,126.435267 L393.215592,126.435267 C392.560371,126.435267 391.903295,126.396288 391.246218,126.346172 C388.777541,126.07703 385.711183,125.150812 382.878701,122.82877 C379.229513,119.639907 375.103295,113.39768 374.61884,101.356845 L374.605847,100.863109 C374.665244,100.863109 381.35109,100.811137 391.203527,100.011137 C392.521392,99.9034803 393.820696,99.6863109 395.112575,99.4227378 C397.249002,98.9865429 399.352019,98.3814385 401.39935,97.6408353 C412.62348,93.5851508 425.906079,85.5480278 425.833689,72.0835267 C425.833689,71.849652 425.816984,71.6157773 425.803991,71.3800464 C426.956659,69.8765661 428.200278,68.4436195 429.609095,67.1777262 C430.423944,66.4445476 431.400278,65.8951276 432.49355,65.8023202 C436.829513,65.4348028 438.86942,68.9336427 438.655963,71.1183295 C438.234617,75.4060325 437.260139,79.6194896 436.285661,83.8162413 C431.951555,102.498376 427.617448,121.178654 423.283341,139.860789 C432.788677,139.871926 442.294014,139.87935 451.801206,139.890487 C456.196566,119.70116 460.630905,99.387471 468.502831,80.2839907 C470.683805,74.9939675 473.252715,69.6352668 477.623944,65.9433875 C480.159443,63.799536 484.003527,62.3387471 486.709791,64.2654292 C489.217448,66.0491879 489.345522,69.6835267 489.016984,72.7443155 C487.62116,85.774478 482.54645,98.1234339 480.100046,110.99768 C479.26478,115.396752 478.737633,119.914617 479.381717,124.343387 C480.027657,128.774014 481.945058,133.139675 485.34181,136.055684 C491.231369,141.109977 500.473132,140.666357 507.118144,136.658933 C510.487053,134.628306 513.393782,131.118329 515.942274,127.274246 C521.642506,137.761485 535.246218,139.29652 547.637865,139.871926 C547.64529,139.873782 548.036937,139.890487 548.731137,139.890487 C554.470348,139.890487 581.902367,140.295128 583.639722,114.587471 C583.962691,109.813457 583.19239,105.299304 581.150626,101.154524 C579.004919,96.7944316 575.493086,93.0078886 570.707935,89.8969838 C567.866172,88.050116 564.645754,86.6078886 561.532993,85.212065 C556.356195,82.8937355 551.003063,80.4955916 547.068028,76.1299304 C545.514432,74.4055684 544.423016,72.5939675 543.825336,70.7470998 C543.595174,70.0361949 543.470812,69.3178654 543.390998,68.6032483 C543.398422,67.1981439 544.053643,59.0607889 558.087981,58.4649652 C564.178005,58.2051044 567.073596,58.9457077 568.966868,60.6923434 C569.354803,61.0672854 569.705615,61.4719258 570.02116,61.8969838 C570.086125,61.9842227 570.15109,62.0696056 570.212343,62.1587007 C570.353411,62.362877 570.492622,62.5707657 570.61884,62.787935 C572.083341,65.3215777 571.472668,67.8682135 571.327889,70.3183295 C571.171972,72.8686775 571.0142,75.5025522 572.643898,78.2700696 C572.74413,78.437123 574.459211,82.7118329 580.259675,82.7118329 C580.966868,82.7118329 581.700046,82.6524362 582.457355,82.5317865 C582.878701,82.4761021 592.777541,81.0654292 591.905151,72.0890951 C591.899582,71.912761 590.819304,54.2143852 560.859211,53.2324826 Z" id="Stroke-3" stroke="#000000" stroke-width="0.25"></path>
                <path
                        d="M695.699861,71.0830626 C695.640464,72.2320186 695.508677,73.4032483 695.324919,74.5614849 C695.263666,74.9475638 695.194988,75.3317865 695.120742,75.7141531 C694.9871,76.4064965 694.834896,77.087703 694.667842,77.7559165 C694.467378,78.5670534 694.248353,79.3596288 694.00891,80.1150812 C693.828863,80.6756381 693.641392,81.2139211 693.448353,81.7336427 C693.355545,81.9786543 693.264594,82.2180974 693.16993,82.4519722 C692.61123,83.8477958 692.011694,85.0412993 691.421439,85.9044084 C688.846961,89.6835267 685.190348,92.6923434 681.04,94.5967517 C678.892436,95.5823666 672.969466,96.5921114 669.056705,95.8329466 C668.880371,95.7976798 668.683619,95.7809745 668.51471,95.7382831 C668.512854,95.7382831 668.540696,95.4988399 668.579675,95.1925754 C668.601949,95.0051044 668.627935,94.7990719 668.653921,94.5967517 C668.665058,94.5095128 668.674339,94.4204176 668.685476,94.3406032 C669.11239,90.8993039 669.622831,87.775406 670.409838,84.2672854 C670.536056,83.7067285 670.651137,83.162877 670.792204,82.5781903 C671.048353,81.5220418 671.336056,80.4046404 671.653457,79.2686775 C672.531415,76.1280742 673.652529,72.8259861 675.065058,70.1791183 C676.757865,67.0013921 679.03536,63.2445476 682.240928,61.0542923 C682.532343,60.8538283 682.831183,60.6682135 683.139304,60.4974478 C684.368074,59.8106729 685.723063,59.3559165 687.222831,59.2389791 C687.627471,59.2074246 688.017262,59.1981439 688.390348,59.2092807 C690.439536,59.2742459 691.970858,59.9851508 693.099397,61.1229698 C694.021903,62.0529002 694.678979,63.2686775 695.100325,64.6812065 C695.194988,64.9948956 695.274803,65.3178654 695.347193,65.650116 C695.634896,66.975406 695.751833,68.4306265 695.736984,69.9415313 C695.733271,70.3183295 695.720278,70.6988399 695.699861,71.0830626 M785.877123,53.1656613 C777.270162,53.1656613 769.58942,57.2417633 764.87109,66.112297 C763.5458,68.6032483 762.036752,71.8422274 760.902645,74.4334107 L760.618654,74.4426914 C759.861346,66.0770302 757.422367,60.2728538 750.719814,56.3693735 C747.933735,54.7452436 743.943016,53.737355 740.722599,53.737355 C739.046497,53.737355 737.344408,53.8487239 735.660882,54.0677494 C732.986172,54.4204176 730.575035,55.2705336 728.342088,56.2709977 C723.744408,58.3257541 720.420046,61.7317865 718.005197,65.3067285 C717.472483,64.25058 716.852529,63.2464037 716.098933,62.3350348 C715.614478,61.7484919 715.089188,61.1897912 714.536056,60.6570766 C713.98478,60.1262181 713.401949,59.6213457 712.800557,59.1387471 C712.457169,58.8640371 712.087796,58.6227378 711.727703,58.3684455 C710.296613,57.3698376 708.754153,56.52529 707.102181,55.8589327 C706.411694,55.5823666 705.706357,55.3336427 704.986172,55.1090487 C696.351369,52.4232019 685.76761,53.4941995 677.865986,55.8236659 C674.185244,56.9076566 670.612158,58.3535963 667.245104,60.1781903 C663.347193,62.2904872 659.736984,64.9132251 656.568538,67.9944316 C655.662738,68.8779582 654.795916,69.7986079 653.968074,70.7489559 C651.926311,73.0895592 650.153689,75.6417633 648.598237,78.3220418 C648.223295,78.9735499 647.827935,79.6139211 647.480835,80.2802784 C645.305429,84.4529002 643.709142,88.8965197 642.588028,93.4533643 C642.214942,94.9735499 641.893828,96.5048724 641.619118,98.0436195 L641.61355,98.0807425 C641.494756,98.761949 641.394524,99.4394432 641.312854,100.116937 C641.285012,100.356381 641.26645,100.592111 641.24232,100.831555 C641.195916,101.282599 641.151369,101.731787 641.123527,102.179118 C641.103109,102.464965 641.093828,102.750812 641.080835,103.034803 C641.06413,103.433875 641.049281,103.83109 641.045568,104.22645 C641.043712,104.536427 641.047425,104.844548 641.052993,105.152668 C641.056705,105.520186 641.065986,105.883991 641.082691,106.247796 C641.097541,106.574478 641.116102,106.899304 641.138376,107.22413 C641.164362,107.563805 641.195916,107.90348 641.229327,108.243155 C641.264594,108.582831 641.298005,108.922506 641.342552,109.260325 C641.383387,109.572158 641.433503,109.880278 641.481763,110.190255 C641.537448,110.548492 641.593132,110.906729 641.659954,111.261253 C641.708213,111.528538 641.769466,111.790255 641.825151,112.051972 C641.908677,112.447332 641.988492,112.842691 642.085012,113.232483 C642.099861,113.290023 642.118422,113.345708 642.133271,113.401392 C642.550905,115.060789 643.096613,116.681206 643.753689,118.260789 C643.805661,118.385151 643.853921,118.511369 643.907749,118.635731 C644.102645,119.088631 644.310534,119.534107 644.525847,119.979582 C644.594524,120.118794 644.65949,120.261717 644.728167,120.400928 C644.785708,120.517865 644.850673,120.632947 644.911926,120.749884 C643.471555,122.097448 641.639536,123.786543 639.607053,125.382831 C638.550905,126.214385 637.442784,127.018097 636.31239,127.732715 C635.181995,128.445476 634.031183,129.070998 632.889652,129.540603 C632.509142,129.698376 632.130487,129.835731 631.753689,129.956381 C630.617726,130.318329 629.504037,130.5058 628.440464,130.453828 C627.961578,130.431555 627.519814,130.353596 627.089188,130.253364 C626.972251,130.227378 626.859026,130.193968 626.7458,130.162413 C626.404269,130.062181 626.079443,129.943387 625.771323,129.798608 C625.700789,129.767053 625.624687,129.741067 625.556009,129.703944 C625.188492,129.516473 624.846961,129.297448 624.529559,129.05058 C624.46645,129.00232 624.40891,128.948492 624.349513,128.898376 C624.084084,128.677494 623.833503,128.438051 623.603341,128.181903 C623.551369,128.122506 623.497541,128.066821 623.443712,128.005568 C623.183852,127.693735 622.946265,127.357773 622.729095,127.003248 C622.526775,126.670998 622.348585,126.318329 622.188956,125.956381 C622.166682,125.909977 622.13884,125.867285 622.118422,125.820882 C622.101717,125.77819 622.083155,125.733643 622.062738,125.690951 C621.851137,125.169374 621.691508,124.62181 621.557865,124.063109 C621.476195,123.727146 621.396381,123.389327 621.344408,123.044084 L621.344408,123.044084 C621.246032,122.381439 621.199629,121.709513 621.207053,121.041299 C621.210766,120.625522 621.240464,120.213457 621.281299,119.805104 C621.288724,119.741995 621.294292,119.680742 621.301717,119.617633 C621.351833,119.203712 621.418654,118.797216 621.511462,118.401856 L621.511462,118.394432 L625.127239,102.808353 L633.246032,67.7865429 C633.270162,67.6770302 633.329559,67.5842227 633.414942,67.5174014 C633.498469,67.45058 633.602413,67.4116009 633.715638,67.4116009 L638.415406,67.4041763 L643.130023,67.3967517 C645.043712,67.3967517 646.001485,65.9433875 646.185244,64.9299304 L646.925847,61.9563805 L648.189884,56.8612529 C648.303109,56.25058 648.343944,55.8385151 648.329095,55.5359629 C648.323527,55.3856148 648.303109,55.263109 648.269698,55.1554524 C648.24,55.0477958 648.195452,54.9568445 648.14348,54.8714617 C647.972715,54.5893271 647.749977,54.3888631 647.517958,54.2236659 C647.133735,53.9508121 646.723527,53.8060325 646.472947,53.7856148 L636.115638,53.7577726 L636.032111,53.7577726 L636.020974,53.8078886 L636.011694,53.8357309 L638.380139,43.3169374 L640.750441,32.7907193 C640.770858,32.6682135 640.783852,32.5271462 640.800557,32.387935 C640.872947,31.6993039 640.852529,30.8696056 640.351369,30.2774942 C640.31239,30.2515081 640.221439,30.2273782 640.11007,30.2051044 C639.848353,30.1531323 639.414014,30.1104408 638.857169,30.0788863 C638.651137,30.0658933 638.428399,30.0547564 638.196381,30.0454756 C635.729559,29.937819 631.970858,29.9470998 631.233968,29.9470998 C630.56761,29.9470998 630.047889,30.2830626 629.856705,30.4278422 L629.737912,30.487239 L629.676659,30.5187935 L629.561578,30.7099768 L629.481763,30.8454756 C625.359258,37.6 621.238608,42.8510441 617.299861,46.9772622 C614.935128,49.4533643 612.640928,51.5266821 610.450673,53.2770302 C604.614942,57.9452436 599.538376,60.3285383 595.991276,61.9935035 C595.042784,62.4389791 594.203805,62.8361949 593.494756,63.2037123 C593.346265,63.2798144 593.236752,63.3670534 593.110534,63.4487239 C592.343944,63.9554524 591.943016,64.5809745 591.959722,65.3271462 C591.969002,65.6742459 592.087796,65.9656613 592.241856,66.225522 C592.494292,66.6617169 592.880371,66.9883991 593.264594,67.1665893 L593.45949,67.2965197 L603.634896,67.3763341 L596.069234,98.9178654 C593.524455,108.363805 592.687332,114.036195 592.444176,117.212065 C592.392204,117.917401 592.368074,118.500232 592.36065,118.97355 C592.342088,120.155916 592.431183,120.657077 592.436752,120.692343 C592.468306,121.258469 592.531415,121.889559 592.614942,122.542923 C592.64464,122.791647 592.674339,123.042227 592.711462,123.287239 C592.756009,123.58051 592.819118,123.886775 592.876659,124.193039 C592.980603,124.744316 593.101253,125.278886 593.236752,125.793039 C593.320278,126.112297 593.407517,126.433411 593.504037,126.758237 C593.552297,126.906729 593.598701,127.053364 593.648817,127.198144 C594.81819,130.817633 597.036288,134.611601 601.080835,137.152668 C601.130951,137.186079 601.16993,137.230626 601.221903,137.264037 C601.385244,137.37355 601.578283,137.44594 601.747193,137.549884 C602.027471,137.707657 602.305893,137.867285 602.601021,138.013921 C605.262738,139.406032 608.414478,140.12993 612.24,140.12993 L612.269698,140.12993 C612.954617,140.098376 616.316102,140.248724 621.203341,139.292807 C623.063202,138.94942 625.056705,138.455684 627.039072,137.746636 C631.709142,136.207889 637.084548,133.659397 642.602877,129.442227 C643.41587,128.840835 644.21587,128.219026 644.978747,127.548956 L645.18478,127.370766 C645.63768,126.97355 646.151833,126.524362 646.621439,126.038051 C646.777355,125.876566 646.927703,125.709513 647.06877,125.538747 C647.215406,125.362413 647.350905,125.182367 647.475267,124.998608 C647.486404,125.017169 647.497541,125.033875 647.508677,125.052436 C647.566218,125.134107 647.629327,125.215777 647.686868,125.297448 C648.769002,126.799072 649.962506,128.239443 651.29522,129.588863 C653.29058,131.612065 655.508677,133.332715 657.880835,134.793503 L657.880835,134.79536 L657.884548,134.797216 C658.446961,135.142459 659.013086,135.480278 659.59406,135.793968 C660.304965,136.187471 661.027007,136.560557 661.769466,136.89652 L661.789884,136.907657 C662.300325,137.135963 662.820046,137.336427 663.339768,137.535035 C665.500325,138.361021 667.748121,138.94942 670.031183,139.341067 C670.775499,139.470998 671.519814,139.556381 672.260418,139.656613 C673.882691,139.87935 675.508677,140.04826 677.151369,140.131787 C677.375963,140.14478 677.596845,140.172622 677.823295,140.181903 C677.775035,140.183759 677.724919,140.183759 677.676659,140.183759 L677.834432,140.183759 C677.834432,140.183759 677.828863,140.181903 677.825151,140.181903 L677.856705,140.181903 L677.91239,140.181903 C679.712854,140.15406 681.509606,140.020418 683.297077,139.810673 C683.831647,139.747564 684.36993,139.710441 684.900789,139.626914 C685.491044,139.534107 686.075731,139.417169 686.662274,139.302088 C687.315638,139.174014 687.969002,139.029234 688.616798,138.871462 C690.665986,138.377726 692.685476,137.761485 694.647425,136.989327 C696.136056,136.400928 697.581995,135.704872 698.994524,134.958701 C701.320278,133.728074 703.549513,132.313689 705.611694,130.678422 C708.65949,128.259861 711.356473,125.429234 713.682227,122.314617 C714.454385,121.27703 715.187564,120.207889 715.879907,119.110905 C716.362506,118.392575 716.930487,117.106265 716.832111,115.834803 C716.772715,115.071926 716.473875,114.314617 715.774107,113.687239 C715.601485,113.477494 714.953689,112.788863 713.836288,112.788863 C713.329559,112.788863 712.800557,112.955916 712.232575,113.278886 C711.891044,113.471926 711.538376,113.709513 711.159722,114.041763 C710.756937,114.548492 701.158794,126.073318 686.998237,126.435267 C686.343016,126.435267 685.684084,126.396288 685.027007,126.346172 C682.560186,126.07703 679.493828,125.150812 676.661346,122.82877 C673.010302,119.639907 668.88594,113.39768 668.401485,101.356845 L668.386636,100.863109 C668.447889,100.863109 675.133735,100.811137 684.984316,100.011137 C686.304037,99.9034803 687.603341,99.6863109 688.89522,99.4227378 C691.029791,98.9865429 693.132807,98.3814385 695.181995,97.6408353 C706.406125,93.5851508 719.688724,85.5480278 719.616334,72.0835267 C719.614478,71.7883991 719.59406,71.4932715 719.577355,71.1981439 C719.568074,71.0459397 719.555081,70.8955916 719.543944,70.7452436 C720.553689,69.1545244 721.66181,67.6417633 722.985244,66.3109049 C724.015406,65.2714617 726.110998,63.5285383 728.559258,63.5285383 C729.279443,63.5285383 729.977355,63.6825986 730.636288,63.9851508 C733.465058,65.2863109 733.923527,69.2918794 733.943944,71.5638051 C733.977355,75.0570766 732.995452,78.6709977 732.043248,82.1698376 C731.701717,83.4227378 731.36761,84.6607889 731.081763,85.8709977 C730.014478,90.4464037 728.954617,95.0236659 727.896613,99.6027842 C725.56529,109.694664 723.241392,119.788399 720.923063,129.882135 L719.150441,137.6 C719.128167,137.698376 718.580603,139.85522 718.523063,140.183759 L747.926311,140.183759 C750.465522,127.780974 753.277587,115.790255 756.407053,104.736891 C758.610302,96.9614849 760.639072,90.5410673 762.795916,84.5308585 C764.145336,80.7740139 765.082691,78.4835267 766.593596,74.7935035 C769.231183,68.3545244 771.428863,67.2464037 772.195452,66.6153132 C772.193596,66.6988399 772.182459,66.7767981 772.182459,66.8603248 C772.182459,74.4222738 778.315174,80.5549884 785.877123,80.5549884 C793.440928,80.5549884 799.571787,74.4222738 799.571787,66.8603248 C799.571787,59.2965197 793.440928,53.1656613 785.877123,53.1656613" id="Fill-5" fill="#000000"></path>
                <path
                        d="M695.699861,71.0830626 C695.640464,72.2320186 695.508677,73.4032483 695.324919,74.5614849 C695.263666,74.9475638 695.194988,75.3317865 695.120742,75.7141531 C694.9871,76.4064965 694.834896,77.087703 694.667842,77.7559165 C694.467378,78.5670534 694.248353,79.3596288 694.00891,80.1150812 C693.828863,80.6756381 693.641392,81.2139211 693.448353,81.7336427 C693.355545,81.9786543 693.264594,82.2180974 693.16993,82.4519722 C692.61123,83.8477958 692.011694,85.0412993 691.421439,85.9044084 C688.846961,89.6835267 685.190348,92.6923434 681.04,94.5967517 C678.892436,95.5823666 672.969466,96.5921114 669.056705,95.8329466 C668.880371,95.7976798 668.683619,95.7809745 668.51471,95.7382831 C668.512854,95.7382831 668.540696,95.4988399 668.579675,95.1925754 C668.601949,95.0051044 668.627935,94.7990719 668.653921,94.5967517 C668.665058,94.5095128 668.674339,94.4204176 668.685476,94.3406032 C669.11239,90.8993039 669.622831,87.775406 670.409838,84.2672854 C670.536056,83.7067285 670.651137,83.162877 670.792204,82.5781903 C671.048353,81.5220418 671.336056,80.4046404 671.653457,79.2686775 C672.531415,76.1280742 673.652529,72.8259861 675.065058,70.1791183 C676.757865,67.0013921 679.03536,63.2445476 682.240928,61.0542923 C682.532343,60.8538283 682.831183,60.6682135 683.139304,60.4974478 C684.368074,59.8106729 685.723063,59.3559165 687.222831,59.2389791 C687.627471,59.2074246 688.017262,59.1981439 688.390348,59.2092807 C690.439536,59.2742459 691.970858,59.9851508 693.099397,61.1229698 C694.021903,62.0529002 694.678979,63.2686775 695.100325,64.6812065 C695.194988,64.9948956 695.274803,65.3178654 695.347193,65.650116 C695.634896,66.975406 695.751833,68.4306265 695.736984,69.9415313 C695.733271,70.3183295 695.720278,70.6988399 695.699861,71.0830626 Z M785.877123,53.1656613 C777.270162,53.1656613 769.58942,57.2417633 764.87109,66.112297 C763.5458,68.6032483 762.036752,71.8422274 760.902645,74.4334107 L760.618654,74.4426914 C759.861346,66.0770302 757.422367,60.2728538 750.719814,56.3693735 C747.933735,54.7452436 743.943016,53.737355 740.722599,53.737355 C739.046497,53.737355 737.344408,53.8487239 735.660882,54.0677494 C732.986172,54.4204176 730.575035,55.2705336 728.342088,56.2709977 C723.744408,58.3257541 720.420046,61.7317865 718.005197,65.3067285 C717.472483,64.25058 716.852529,63.2464037 716.098933,62.3350348 C715.614478,61.7484919 715.089188,61.1897912 714.536056,60.6570766 C713.98478,60.1262181 713.401949,59.6213457 712.800557,59.1387471 C712.457169,58.8640371 712.087796,58.6227378 711.727703,58.3684455 C710.296613,57.3698376 708.754153,56.52529 707.102181,55.8589327 C706.411694,55.5823666 705.706357,55.3336427 704.986172,55.1090487 C696.351369,52.4232019 685.76761,53.4941995 677.865986,55.8236659 C674.185244,56.9076566 670.612158,58.3535963 667.245104,60.1781903 C663.347193,62.2904872 659.736984,64.9132251 656.568538,67.9944316 C655.662738,68.8779582 654.795916,69.7986079 653.968074,70.7489559 C651.926311,73.0895592 650.153689,75.6417633 648.598237,78.3220418 C648.223295,78.9735499 647.827935,79.6139211 647.480835,80.2802784 C645.305429,84.4529002 643.709142,88.8965197 642.588028,93.4533643 C642.214942,94.9735499 641.893828,96.5048724 641.619118,98.0436195 L641.61355,98.0807425 C641.494756,98.761949 641.394524,99.4394432 641.312854,100.116937 C641.285012,100.356381 641.26645,100.592111 641.24232,100.831555 C641.195916,101.282599 641.151369,101.731787 641.123527,102.179118 C641.103109,102.464965 641.093828,102.750812 641.080835,103.034803 C641.06413,103.433875 641.049281,103.83109 641.045568,104.22645 C641.043712,104.536427 641.047425,104.844548 641.052993,105.152668 C641.056705,105.520186 641.065986,105.883991 641.082691,106.247796 C641.097541,106.574478 641.116102,106.899304 641.138376,107.22413 C641.164362,107.563805 641.195916,107.90348 641.229327,108.243155 C641.264594,108.582831 641.298005,108.922506 641.342552,109.260325 C641.383387,109.572158 641.433503,109.880278 641.481763,110.190255 C641.537448,110.548492 641.593132,110.906729 641.659954,111.261253 C641.708213,111.528538 641.769466,111.790255 641.825151,112.051972 C641.908677,112.447332 641.988492,112.842691 642.085012,113.232483 C642.099861,113.290023 642.118422,113.345708 642.133271,113.401392 C642.550905,115.060789 643.096613,116.681206 643.753689,118.260789 C643.805661,118.385151 643.853921,118.511369 643.907749,118.635731 C644.102645,119.088631 644.310534,119.534107 644.525847,119.979582 C644.594524,120.118794 644.65949,120.261717 644.728167,120.400928 C644.785708,120.517865 644.850673,120.632947 644.911926,120.749884 C643.471555,122.097448 641.639536,123.786543 639.607053,125.382831 C638.550905,126.214385 637.442784,127.018097 636.31239,127.732715 C635.181995,128.445476 634.031183,129.070998 632.889652,129.540603 C632.509142,129.698376 632.130487,129.835731 631.753689,129.956381 C630.617726,130.318329 629.504037,130.5058 628.440464,130.453828 C627.961578,130.431555 627.519814,130.353596 627.089188,130.253364 C626.972251,130.227378 626.859026,130.193968 626.7458,130.162413 C626.404269,130.062181 626.079443,129.943387 625.771323,129.798608 C625.700789,129.767053 625.624687,129.741067 625.556009,129.703944 C625.188492,129.516473 624.846961,129.297448 624.529559,129.05058 C624.46645,129.00232 624.40891,128.948492 624.349513,128.898376 C624.084084,128.677494 623.833503,128.438051 623.603341,128.181903 C623.551369,128.122506 623.497541,128.066821 623.443712,128.005568 C623.183852,127.693735 622.946265,127.357773 622.729095,127.003248 C622.526775,126.670998 622.348585,126.318329 622.188956,125.956381 C622.166682,125.909977 622.13884,125.867285 622.118422,125.820882 C622.101717,125.77819 622.083155,125.733643 622.062738,125.690951 C621.851137,125.169374 621.691508,124.62181 621.557865,124.063109 C621.476195,123.727146 621.396381,123.389327 621.344408,123.044084 L621.344408,123.044084 C621.246032,122.381439 621.199629,121.709513 621.207053,121.041299 C621.210766,120.625522 621.240464,120.213457 621.281299,119.805104 C621.288724,119.741995 621.294292,119.680742 621.301717,119.617633 C621.351833,119.203712 621.418654,118.797216 621.511462,118.401856 L621.511462,118.394432 L625.127239,102.808353 L633.246032,67.7865429 C633.270162,67.6770302 633.329559,67.5842227 633.414942,67.5174014 C633.498469,67.45058 633.602413,67.4116009 633.715638,67.4116009 L638.415406,67.4041763 L643.130023,67.3967517 C645.043712,67.3967517 646.001485,65.9433875 646.185244,64.9299304 L646.925847,61.9563805 L648.189884,56.8612529 C648.303109,56.25058 648.343944,55.8385151 648.329095,55.5359629 C648.323527,55.3856148 648.303109,55.263109 648.269698,55.1554524 C648.24,55.0477958 648.195452,54.9568445 648.14348,54.8714617 C647.972715,54.5893271 647.749977,54.3888631 647.517958,54.2236659 C647.133735,53.9508121 646.723527,53.8060325 646.472947,53.7856148 L636.115638,53.7577726 L636.032111,53.7577726 L636.020974,53.8078886 L636.011694,53.8357309 L638.380139,43.3169374 L640.750441,32.7907193 C640.770858,32.6682135 640.783852,32.5271462 640.800557,32.387935 C640.872947,31.6993039 640.852529,30.8696056 640.351369,30.2774942 C640.31239,30.2515081 640.221439,30.2273782 640.11007,30.2051044 C639.848353,30.1531323 639.414014,30.1104408 638.857169,30.0788863 C638.651137,30.0658933 638.428399,30.0547564 638.196381,30.0454756 C635.729559,29.937819 631.970858,29.9470998 631.233968,29.9470998 C630.56761,29.9470998 630.047889,30.2830626 629.856705,30.4278422 L629.737912,30.487239 L629.676659,30.5187935 L629.561578,30.7099768 L629.481763,30.8454756 C625.359258,37.6 621.238608,42.8510441 617.299861,46.9772622 C614.935128,49.4533643 612.640928,51.5266821 610.450673,53.2770302 C604.614942,57.9452436 599.538376,60.3285383 595.991276,61.9935035 C595.042784,62.4389791 594.203805,62.8361949 593.494756,63.2037123 C593.346265,63.2798144 593.236752,63.3670534 593.110534,63.4487239 C592.343944,63.9554524 591.943016,64.5809745 591.959722,65.3271462 C591.969002,65.6742459 592.087796,65.9656613 592.241856,66.225522 C592.494292,66.6617169 592.880371,66.9883991 593.264594,67.1665893 L593.45949,67.2965197 L603.634896,67.3763341 L596.069234,98.9178654 C593.524455,108.363805 592.687332,114.036195 592.444176,117.212065 C592.392204,117.917401 592.368074,118.500232 592.36065,118.97355 C592.342088,120.155916 592.431183,120.657077 592.436752,120.692343 C592.468306,121.258469 592.531415,121.889559 592.614942,122.542923 C592.64464,122.791647 592.674339,123.042227 592.711462,123.287239 C592.756009,123.58051 592.819118,123.886775 592.876659,124.193039 C592.980603,124.744316 593.101253,125.278886 593.236752,125.793039 C593.320278,126.112297 593.407517,126.433411 593.504037,126.758237 C593.552297,126.906729 593.598701,127.053364 593.648817,127.198144 C594.81819,130.817633 597.036288,134.611601 601.080835,137.152668 C601.130951,137.186079 601.16993,137.230626 601.221903,137.264037 C601.385244,137.37355 601.578283,137.44594 601.747193,137.549884 C602.027471,137.707657 602.305893,137.867285 602.601021,138.013921 C605.262738,139.406032 608.414478,140.12993 612.24,140.12993 L612.269698,140.12993 C612.954617,140.098376 616.316102,140.248724 621.203341,139.292807 C623.063202,138.94942 625.056705,138.455684 627.039072,137.746636 C631.709142,136.207889 637.084548,133.659397 642.602877,129.442227 C643.41587,128.840835 644.21587,128.219026 644.978747,127.548956 L645.18478,127.370766 C645.63768,126.97355 646.151833,126.524362 646.621439,126.038051 C646.777355,125.876566 646.927703,125.709513 647.06877,125.538747 C647.215406,125.362413 647.350905,125.182367 647.475267,124.998608 C647.486404,125.017169 647.497541,125.033875 647.508677,125.052436 C647.566218,125.134107 647.629327,125.215777 647.686868,125.297448 C648.769002,126.799072 649.962506,128.239443 651.29522,129.588863 C653.29058,131.612065 655.508677,133.332715 657.880835,134.793503 L657.880835,134.79536 L657.884548,134.797216 C658.446961,135.142459 659.013086,135.480278 659.59406,135.793968 C660.304965,136.187471 661.027007,136.560557 661.769466,136.89652 L661.789884,136.907657 C662.300325,137.135963 662.820046,137.336427 663.339768,137.535035 C665.500325,138.361021 667.748121,138.94942 670.031183,139.341067 C670.775499,139.470998 671.519814,139.556381 672.260418,139.656613 C673.882691,139.87935 675.508677,140.04826 677.151369,140.131787 C677.375963,140.14478 677.596845,140.172622 677.823295,140.181903 C677.775035,140.183759 677.724919,140.183759 677.676659,140.183759 L677.834432,140.183759 C677.834432,140.183759 677.828863,140.181903 677.825151,140.181903 L677.856705,140.181903 L677.91239,140.181903 C679.712854,140.15406 681.509606,140.020418 683.297077,139.810673 C683.831647,139.747564 684.36993,139.710441 684.900789,139.626914 C685.491044,139.534107 686.075731,139.417169 686.662274,139.302088 C687.315638,139.174014 687.969002,139.029234 688.616798,138.871462 C690.665986,138.377726 692.685476,137.761485 694.647425,136.989327 C696.136056,136.400928 697.581995,135.704872 698.994524,134.958701 C701.320278,133.728074 703.549513,132.313689 705.611694,130.678422 C708.65949,128.259861 711.356473,125.429234 713.682227,122.314617 C714.454385,121.27703 715.187564,120.207889 715.879907,119.110905 C716.362506,118.392575 716.930487,117.106265 716.832111,115.834803 C716.772715,115.071926 716.473875,114.314617 715.774107,113.687239 C715.601485,113.477494 714.953689,112.788863 713.836288,112.788863 C713.329559,112.788863 712.800557,112.955916 712.232575,113.278886 C711.891044,113.471926 711.538376,113.709513 711.159722,114.041763 C710.756937,114.548492 701.158794,126.073318 686.998237,126.435267 C686.343016,126.435267 685.684084,126.396288 685.027007,126.346172 C682.560186,126.07703 679.493828,125.150812 676.661346,122.82877 C673.010302,119.639907 668.88594,113.39768 668.401485,101.356845 L668.386636,100.863109 C668.447889,100.863109 675.133735,100.811137 684.984316,100.011137 C686.304037,99.9034803 687.603341,99.6863109 688.89522,99.4227378 C691.029791,98.9865429 693.132807,98.3814385 695.181995,97.6408353 C706.406125,93.5851508 719.688724,85.5480278 719.616334,72.0835267 C719.614478,71.7883991 719.59406,71.4932715 719.577355,71.1981439 C719.568074,71.0459397 719.555081,70.8955916 719.543944,70.7452436 C720.553689,69.1545244 721.66181,67.6417633 722.985244,66.3109049 C724.015406,65.2714617 726.110998,63.5285383 728.559258,63.5285383 C729.279443,63.5285383 729.977355,63.6825986 730.636288,63.9851508 C733.465058,65.2863109 733.923527,69.2918794 733.943944,71.5638051 C733.977355,75.0570766 732.995452,78.6709977 732.043248,82.1698376 C731.701717,83.4227378 731.36761,84.6607889 731.081763,85.8709977 C730.014478,90.4464037 728.954617,95.0236659 727.896613,99.6027842 C725.56529,109.694664 723.241392,119.788399 720.923063,129.882135 L719.150441,137.6 C719.128167,137.698376 718.580603,139.85522 718.523063,140.183759 L747.926311,140.183759 C750.465522,127.780974 753.277587,115.790255 756.407053,104.736891 C758.610302,96.9614849 760.639072,90.5410673 762.795916,84.5308585 C764.145336,80.7740139 765.082691,78.4835267 766.593596,74.7935035 C769.231183,68.3545244 771.428863,67.2464037 772.195452,66.6153132 C772.193596,66.6988399 772.182459,66.7767981 772.182459,66.8603248 C772.182459,74.4222738 778.315174,80.5549884 785.877123,80.5549884 C793.440928,80.5549884 799.571787,74.4222738 799.571787,66.8603248 C799.571787,59.2965197 793.440928,53.1656613 785.877123,53.1656613 Z" id="Stroke-7" stroke="#000000" stroke-width="0.25"></path>
                <path
                        d="M209.751647,56.6661717 C209.979954,55.4411137 209.913132,55.0179118 209.705244,54.6763805 C209.250487,53.9246404 208.437494,53.6220882 208.03471,53.5886775 L203.895499,53.583109 C203.895499,53.5812529 193.45652,53.5682599 192.35768,53.5682599 C192.277865,53.5682599 192.251879,53.5404176 192.257448,53.4531787 C192.348399,52.2652436 193.601299,35.7065429 193.773921,28.3432019 C193.918701,21.9914617 193.805476,16.2596752 196.086682,13.9766125 C196.086682,22.4387935 203.758144,29.1060789 212.524733,27.4058469 C217.864872,26.370116 222.169281,22.06942 223.208724,16.7311369 C224.914524,7.96083527 218.243527,0.283805104 209.783202,0.283805104 C208.717773,0.283805104 207.689466,0.415591647 206.696427,0.64575406 C204.069977,1.09679814 200.105244,2.16965197 196.086682,4.84807425 C191.522413,7.13113689 185.014756,17.6740603 183.013828,20.5677958 C182.143295,21.8262645 162.193411,53.5775406 153.588306,62.6336891 C153.18181,63.0012065 150.375313,66.0805568 149.961392,66.4276566 C149.838886,66.5297448 149.723805,66.6875174 149.742367,66.8564269 C149.760928,67.0290487 149.920557,67.1664037 150.083898,67.1979582 C150.122877,67.2053828 150.161856,67.2090951 150.200835,67.2090951 L161.99109,67.2183759 C162.065336,67.3093271 162.096891,67.3501624 162.171137,67.4429698 L159.253271,80.7292807 C159.253271,80.7162877 159.255128,80.7014385 159.255128,80.6884455 C158.755824,82.3812529 156.749327,88.4619954 156.201763,90.1399536 C153.083434,99.6879814 149.176241,108.978005 144.532158,117.883805 C142.900603,121.013271 141.10942,124.179861 138.341903,126.370116 C137.573457,126.977077 136.660232,127.522784 135.683898,127.457819 C134.421717,127.37058 133.421253,126.24761 133.083434,125.029977 C132.745615,123.810487 132.93123,122.514896 133.155824,121.26942 C136.185058,104.567796 145.831462,88.6995824 143.847239,71.8420418 C143.375777,67.8346172 142.197123,63.8253364 139.80826,60.5752204 C135.925197,55.2870534 129.087146,52.5956381 122.533086,52.9334571 C115.980882,53.2712761 109.768353,56.3729002 104.877401,60.7459861 C99.984594,65.1172158 97.1149884,68.8851972 94.1173086,74.7227842 C93.9818097,70.2476102 93.3711369,67.4893735 91.4611601,63.3223202 C89.3451508,58.7023666 85.2040835,55.7362413 80.5358701,54.1566589 C77.5084919,53.132065 72.4207889,52.8740603 69.309884,53.6109513 C62.2398144,55.2907657 56.272297,59.9144316 51.9864501,65.6759165 C49.7646404,68.6643155 52.3075638,72.6401856 57.222645,68.1278886 C58.0300696,67.3854292 60.2778654,65.8392575 61.3711369,65.7483063 C65.7052436,65.3807889 67.7451508,68.8796288 67.5316937,71.0643155 C67.1122042,75.3520186 66.1358701,79.5636195 65.1632483,83.7622274 C60.8291415,102.444362 56.4950348,121.126497 52.1609281,139.806775 C61.6662645,139.817912 71.1716009,139.827193 80.6769374,139.836473 C85.0741531,119.647146 89.5066357,99.3334571 97.3804176,80.2299768 C99.5613921,74.9399536 102.130302,69.5812529 106.499675,65.8893735 C109.03703,63.745522 112.881114,62.2847332 115.587378,64.2095592 C118.095035,65.995174 118.221253,69.6295128 117.894571,72.6903016 C116.498747,85.720464 111.422181,98.06942 108.977633,110.945522 C108.142367,115.342738 107.61522,119.860603 108.259304,124.29123 C108.903387,128.72 110.822645,133.085661 114.219397,136.001671 C120.108956,141.055963 129.348863,140.612343 135.995731,136.604919 C142.640742,132.597494 148.134942,123.171972 151.342367,116.105615 C151.431462,115.910719 151.507564,115.700974 151.592947,115.506079 C150.616613,119.984965 149.445383,125.397494 149.445383,125.397494 L139.631926,170.138097 C139.063944,172.59007 138.050487,174.472204 136.025429,176.131601 C135.947471,176.19471 135.628213,176.415592 135.279258,176.6142 C134.943295,176.807239 134.538654,176.998422 134.172993,177.130209 C128.630534,179.158979 125.987378,177.432761 124.394803,175.610023 C121.78877,172.940882 121.341439,169.59239 119.598515,167.318608 C116.478329,163.253643 112.283434,161.005847 106.419861,161.579397 C105.434246,161.675916 100.85884,162.475916 97.6161485,166.24761 C94.9451508,168.890766 94.2156845,173.774292 94.2156845,173.774292 C93.4398144,182.732065 98.5943387,186.910255 102.939582,188.616056 C105.547471,189.638794 108.181346,189.6258 108.181346,189.6258 C136.303852,189.302831 153.887146,168.374756 153.887146,168.374756 C160.379954,160.46942 164.378097,155.559907 169.998515,144.97058 C179.141903,127.738097 191.730302,69.6109513 192.194339,67.2870534 C192.227749,67.2610673 192.246311,67.2443619 192.281578,67.2183759 L198.56464,67.207239 L198.56464,67.2109513 L204.691787,67.1998144 C206.605476,67.1998144 207.563248,65.7483063 207.747007,64.732993 L209.751647,56.6661717 Z" id="Fill-9" fill="#000000"></path>
                <path
                        d="M209.751647,56.6661717 C209.979954,55.4411137 209.913132,55.0179118 209.705244,54.6763805 C209.250487,53.9246404 208.437494,53.6220882 208.03471,53.5886775 L203.895499,53.583109 C203.895499,53.5812529 193.45652,53.5682599 192.35768,53.5682599 C192.277865,53.5682599 192.251879,53.5404176 192.257448,53.4531787 C192.348399,52.2652436 193.601299,35.7065429 193.773921,28.3432019 C193.918701,21.9914617 193.805476,16.2596752 196.086682,13.9766125 C196.086682,22.4387935 203.758144,29.1060789 212.524733,27.4058469 C217.864872,26.370116 222.169281,22.06942 223.208724,16.7311369 C224.914524,7.96083527 218.243527,0.283805104 209.783202,0.283805104 C208.717773,0.283805104 207.689466,0.415591647 206.696427,0.64575406 C204.069977,1.09679814 200.105244,2.16965197 196.086682,4.84807425 C191.522413,7.13113689 185.014756,17.6740603 183.013828,20.5677958 C182.143295,21.8262645 162.193411,53.5775406 153.588306,62.6336891 C153.18181,63.0012065 150.375313,66.0805568 149.961392,66.4276566 C149.838886,66.5297448 149.723805,66.6875174 149.742367,66.8564269 C149.760928,67.0290487 149.920557,67.1664037 150.083898,67.1979582 C150.122877,67.2053828 150.161856,67.2090951 150.200835,67.2090951 L161.99109,67.2183759 C162.065336,67.3093271 162.096891,67.3501624 162.171137,67.4429698 L159.253271,80.7292807 C159.253271,80.7162877 159.255128,80.7014385 159.255128,80.6884455 C158.755824,82.3812529 156.749327,88.4619954 156.201763,90.1399536 C153.083434,99.6879814 149.176241,108.978005 144.532158,117.883805 C142.900603,121.013271 141.10942,124.179861 138.341903,126.370116 C137.573457,126.977077 136.660232,127.522784 135.683898,127.457819 C134.421717,127.37058 133.421253,126.24761 133.083434,125.029977 C132.745615,123.810487 132.93123,122.514896 133.155824,121.26942 C136.185058,104.567796 145.831462,88.6995824 143.847239,71.8420418 C143.375777,67.8346172 142.197123,63.8253364 139.80826,60.5752204 C135.925197,55.2870534 129.087146,52.5956381 122.533086,52.9334571 C115.980882,53.2712761 109.768353,56.3729002 104.877401,60.7459861 C99.984594,65.1172158 97.1149884,68.8851972 94.1173086,74.7227842 C93.9818097,70.2476102 93.3711369,67.4893735 91.4611601,63.3223202 C89.3451508,58.7023666 85.2040835,55.7362413 80.5358701,54.1566589 C77.5084919,53.132065 72.4207889,52.8740603 69.309884,53.6109513 C62.2398144,55.2907657 56.272297,59.9144316 51.9864501,65.6759165 C49.7646404,68.6643155 52.3075638,72.6401856 57.222645,68.1278886 C58.0300696,67.3854292 60.2778654,65.8392575 61.3711369,65.7483063 C65.7052436,65.3807889 67.7451508,68.8796288 67.5316937,71.0643155 C67.1122042,75.3520186 66.1358701,79.5636195 65.1632483,83.7622274 C60.8291415,102.444362 56.4950348,121.126497 52.1609281,139.806775 C61.6662645,139.817912 71.1716009,139.827193 80.6769374,139.836473 C85.0741531,119.647146 89.5066357,99.3334571 97.3804176,80.2299768 C99.5613921,74.9399536 102.130302,69.5812529 106.499675,65.8893735 C109.03703,63.745522 112.881114,62.2847332 115.587378,64.2095592 C118.095035,65.995174 118.221253,69.6295128 117.894571,72.6903016 C116.498747,85.720464 111.422181,98.06942 108.977633,110.945522 C108.142367,115.342738 107.61522,119.860603 108.259304,124.29123 C108.903387,128.72 110.822645,133.085661 114.219397,136.001671 C120.108956,141.055963 129.348863,140.612343 135.995731,136.604919 C142.640742,132.597494 148.134942,123.171972 151.342367,116.105615 C151.431462,115.910719 151.507564,115.700974 151.592947,115.506079 C150.616613,119.984965 149.445383,125.397494 149.445383,125.397494 L139.631926,170.138097 C139.063944,172.59007 138.050487,174.472204 136.025429,176.131601 C135.947471,176.19471 135.628213,176.415592 135.279258,176.6142 C134.943295,176.807239 134.538654,176.998422 134.172993,177.130209 C128.630534,179.158979 125.987378,177.432761 124.394803,175.610023 C121.78877,172.940882 121.341439,169.59239 119.598515,167.318608 C116.478329,163.253643 112.283434,161.005847 106.419861,161.579397 C105.434246,161.675916 100.85884,162.475916 97.6161485,166.24761 C94.9451508,168.890766 94.2156845,173.774292 94.2156845,173.774292 C93.4398144,182.732065 98.5943387,186.910255 102.939582,188.616056 C105.547471,189.638794 108.181346,189.6258 108.181346,189.6258 C136.303852,189.302831 153.887146,168.374756 153.887146,168.374756 C160.379954,160.46942 164.378097,155.559907 169.998515,144.97058 C179.141903,127.738097 191.730302,69.6109513 192.194339,67.2870534 C192.227749,67.2610673 192.246311,67.2443619 192.281578,67.2183759 L198.56464,67.207239 L198.56464,67.2109513 L204.691787,67.1998144 C206.605476,67.1998144 207.563248,65.7483063 207.747007,64.732993 L209.751647,56.6661717 Z" id="Stroke-11" stroke="#000000" stroke-width="0.25"></path>
                <path
                        d="M34.0809281,53.3952668 C25.5649188,51.659768 17.254942,57.1576798 15.5194432,65.6755452 C15.5064501,65.7423666 10.4892807,89.7794896 10.4837123,90.1080278 L0.284176334,140.222181 L32.5254756,140.222181 C32.5254756,140.222181 38.3593503,110.913596 42.0790719,92.2166125 C43.8943852,83.6374942 46.3315081,72.0996752 46.3612065,71.9567517 C48.0948492,63.4388863 42.5969374,55.1289095 34.0809281,53.3952668" id="Fill-13" fill="#000000"></path>
                <path
                        d="M34.0809281,53.3952668 C25.5649188,51.659768 17.254942,57.1576798 15.5194432,65.6755452 C15.5064501,65.7423666 10.4892807,89.7794896 10.4837123,90.1080278 L0.284176334,140.222181 L32.5254756,140.222181 C32.5254756,140.222181 38.3593503,110.913596 42.0790719,92.2166125 C43.8943852,83.6374942 46.3315081,72.0996752 46.3612065,71.9567517 C48.0948492,63.4388863 42.5969374,55.1289095 34.0809281,53.3952668 Z" id="Stroke-15" stroke="#000000" stroke-width="0.25"></path>
                <path
                        d="M36.6765661,34.6362877 C36.2979118,36.7263109 35.0078886,39.0966125 31.8450116,41.3444084 C45.5266821,41.3444084 59.2064965,33.4297912 59.2064965,18.3597216 C59.2064965,18.3393039 59.1990719,18.3225986 59.1935035,18.3077494 C59.1990719,18.1444084 59.2064965,17.9847796 59.2064965,17.8214385 C59.2064965,8.13605568 51.3531323,0.284547564 41.6677494,0.284547564 C31.9823666,0.284547564 24.1290023,8.13605568 24.1290023,17.8214385 C24.1290023,25.7750348 29.4227378,32.4850116 36.6765661,34.6362877" id="Fill-17" fill="#000000"></path>
                <path
                        d="M36.6765661,34.6362877 C36.2979118,36.7263109 35.0078886,39.0966125 31.8450116,41.3444084 C45.5266821,41.3444084 59.2064965,33.4297912 59.2064965,18.3597216 C59.2064965,18.3393039 59.1990719,18.3225986 59.1935035,18.3077494 C59.1990719,18.1444084 59.2064965,17.9847796 59.2064965,17.8214385 C59.2064965,8.13605568 51.3531323,0.284547564 41.6677494,0.284547564 C31.9823666,0.284547564 24.1290023,8.13605568 24.1290023,17.8214385 C24.1290023,25.7750348 29.4227378,32.4850116 36.6765661,34.6362877 Z" id="Stroke-19" stroke="#000000" stroke-width="0.25"></path>
            </g>
        </g>
    </g>
</svg>
